<?xml version="1.0" encoding="UTF-8"?>
<svg version="1.1" xmlns="http://www.w3.org/2000/svg" width="512" height="512">
<path d="M0 0 C12.92545755 10.82554387 24.62898416 23.22674276 36.58549595 35.08886719 C40.47078514 38.94346702 44.36368107 42.7896353 48.27563477 46.6171875 C52.08501489 50.34464609 55.87441966 54.09135528 59.65049553 57.85253906 C61.08574568 59.27556338 62.52786182 60.69169845 63.97699165 62.10058594 C65.9994119 64.06953273 67.99514785 66.06227493 69.98657227 68.0625 C70.88333679 68.91847778 70.88333679 68.91847778 71.79821777 69.79174805 C75.59248313 73.67307549 76.67816272 76.48696744 76.75424099 81.93296814 C77.21141875 85.77820255 79.85133282 88.01022907 82.5625 90.5625 C83.06330078 91.09423828 83.56410156 91.62597656 84.08007812 92.17382812 C84.59119141 92.67462891 85.10230469 93.17542969 85.62890625 93.69140625 C86.08338135 94.13685791 86.53785645 94.58230957 87.00610352 95.04125977 C89.17823845 96.30417229 89.17823845 96.30417229 92.60131836 95.58374023 C96.80842282 95.47894721 98.61548296 96.96077815 101.671875 99.76367188 C103.38524159 101.47830064 105.07685298 103.21485265 106.75 104.96875 C107.64871826 105.87878784 108.54743652 106.78882568 109.47338867 107.72644043 C111.84907818 110.13925978 114.20591004 112.5678409 116.55535889 115.00604248 C118.96096052 117.49376529 121.3896261 119.95874517 123.81640625 122.42578125 C128.56573668 127.26323888 133.29149459 132.12281459 138 137 C141.91542548 135.41341083 144.53108855 132.72710015 147.43600464 129.76412964 C147.97265688 129.22495285 148.50930912 128.68577606 149.06222355 128.13026059 C150.85990285 126.32182402 152.65031624 124.5063605 154.44091797 122.69091797 C155.72864551 121.39280319 157.01686065 120.09517196 158.30552673 118.79798889 C161.08168786 116.00193868 163.85490814 113.20301478 166.6260643 110.40200424 C171.01687687 105.96502322 175.41747842 101.53784027 179.82009888 97.11257935 C192.33923748 84.52661973 204.85028894 71.93270524 217.33984375 59.31738281 C224.23666708 52.35127507 231.14434947 45.39612637 238.06405938 38.45275033 C241.72139985 34.78192663 245.3729333 31.10571937 249.01098251 27.41576767 C252.44047311 23.93735664 255.88400111 20.47346301 259.338274 17.01966667 C260.59552291 15.75761891 261.84770098 14.49049325 263.09402657 13.21765709 C276.67908166 -0.64389665 293.55903281 -11.7419534 313.59375 -12.265625 C315.56249991 -12.27086801 317.5313043 -12.26552191 319.5 -12.25 C320.97146484 -12.26160156 320.97146484 -12.26160156 322.47265625 -12.2734375 C336.90842325 -12.23499338 336.90842325 -12.23499338 342.453125 -8.2265625 C349.22282608 1.5177042 348.16393324 17.65038382 346.37890625 28.921875 C343.40577189 41.44868112 338.04296519 53.00666948 329.52105713 62.67959595 C328.99944386 63.27903224 328.47783059 63.87846853 327.94041085 64.49606955 C322.2711884 70.94123775 316.25017251 77.01674536 310.16308594 83.06396484 C308.92937394 84.29711071 307.69610609 85.53070105 306.46324158 86.76469421 C303.16066578 90.06783667 299.8520234 93.3648378 296.54213619 96.66065168 C293.06720106 100.12296317 289.59804497 103.59105598 286.12823486 107.0585022 C279.57715684 113.60339927 273.02100411 120.14318769 266.46294713 126.68109095 C258.98843769 134.13313514 251.51970314 141.59095596 244.05141401 149.0492332 C228.70729519 164.37252683 213.35604962 179.68866328 198 195 C199.77970629 198.81427377 202.00292909 201.24446083 205.00048828 204.22753906 C205.507966 204.73530884 206.01544373 205.24307861 206.53829956 205.76623535 C208.21093869 207.43748509 209.89054217 209.10154556 211.5703125 210.765625 C212.73374278 211.92532377 213.89673126 213.08546592 215.05929565 214.24603271 C218.115982 217.29509352 221.17862744 220.33809963 224.24255371 223.37988281 C227.36975165 226.48659913 230.49127507 229.59900545 233.61328125 232.7109375 C239.7366488 238.81287417 245.8663236 244.90842598 252 251 C257.25297319 246.61789987 262.11481804 241.99214243 266.91015625 237.1171875 C268.40937044 235.6053351 269.90872355 234.09362044 271.40820312 232.58203125 C273.74260041 230.22278686 276.07535454 227.86196196 278.40551758 225.49853516 C280.67346507 223.20031658 282.9476489 220.90841473 285.22265625 218.6171875 C286.25882835 217.56082596 286.25882835 217.56082596 287.31593323 216.48312378 C294.17696718 209.58684092 300.29788651 205.00718774 310.375 204.6875 C317.98110207 204.86270831 323.79171286 206.91690102 329.390625 212.15625 C335.04133921 218.62988375 336.55513548 225.07851301 336.6640625 233.53125 C334.55326266 244.55707505 327.06426992 251.61025762 319.35546875 259.1328125 C318.21808685 260.26084923 317.0818184 261.39000964 315.9466095 262.52023315 C312.98038391 265.46752316 309.99944994 268.39947408 307.01501465 271.32830811 C303.96242968 274.32940836 300.92424955 277.34501707 297.88476562 280.359375 C291.93704877 286.2537419 285.97368802 292.13195575 280 298 C281.33582819 300.96074208 282.80541501 303.06303474 285.08297729 305.37059021 C285.71627457 306.01675293 286.34957184 306.66291565 287.00205994 307.32865906 C288.0430056 308.37531487 288.0430056 308.37531487 289.10498047 309.44311523 C289.83702194 310.18669281 290.56906342 310.93027039 291.32328796 311.69638062 C293.74881559 314.15623466 296.18219782 316.60810757 298.6171875 319.05859375 C299.44988285 319.89819201 300.2825782 320.73779026 301.14050674 321.60283089 C305.55114271 326.04931577 309.96790654 330.48960901 314.38964844 334.92504883 C318.94200192 339.49391653 323.47303487 344.08332494 327.99938774 348.67793179 C331.49482994 352.21829711 335.00592239 355.74282793 338.5213356 359.26335335 C340.19761337 360.94749754 341.86804116 362.63748659 343.53228378 364.3335247 C355.60144128 376.72155302 355.60144128 376.72155302 371 384 C377.41871866 387.66334887 382.37676876 394.94990246 384.375 402 C386.08533136 410.92193474 385.26429751 419.56813986 380.5234375 427.45703125 C375.68122491 434.12336503 369.82801891 438.41305813 362 441 C351.38217419 442.20947851 342.90169424 441.35640858 334 435 C329.51052089 431.19802415 326.97190741 427.19378576 324.7973175 421.76176453 C322.17695777 415.89048459 318.75930539 411.94110607 314.18041992 407.49926758 C313.40915771 406.72712921 312.63789551 405.95499084 311.84326172 405.15945435 C309.31963702 402.63997134 306.77551981 400.14235224 304.23046875 397.64453125 C302.46510477 395.89037136 300.70107091 394.13487194 298.93830872 392.37809753 C294.31713466 387.7797253 289.67822373 383.19966588 285.03527832 378.62329102 C280.29025934 373.9431684 275.56563676 369.24248022 270.83789062 364.54492188 C261.57521961 355.34641108 252.29427374 346.16657238 243 337 C239.33697915 338.71684421 237.02163833 340.75867787 234.17480469 343.66162109 C233.70914597 344.13341293 233.24348724 344.60520477 232.76371765 345.09129333 C231.75596589 346.11331724 230.75047192 347.1375713 229.74700165 348.16379929 C228.15372219 349.79198805 226.55334423 351.41287799 224.95074463 353.03189087 C220.39619579 357.63521919 215.85285231 362.24948403 211.31884766 366.87304688 C208.54126806 369.70447193 205.75379633 372.52584835 202.96018219 375.34144974 C201.90229818 376.4116787 200.84821414 377.48567867 199.79817963 378.56361008 C192.23675633 386.32402816 185.63877336 392.32993216 174.4375 393.3125 C167.8237694 393.16470714 161.61798854 391.27429799 156.58984375 386.90625 C150.47201535 380.2443679 147.92078271 374.07037945 148 365 C149.77408125 353.46847186 157.67926139 346.01932515 165.6796875 338.125 C166.89883347 336.91009888 166.89883347 336.91009888 168.14260864 335.6706543 C170.71537691 333.10899596 173.29504381 330.55441684 175.875 328 C177.6306706 326.25437106 179.38588364 324.50828179 181.140625 322.76171875 C185.42180679 318.50247533 189.70866009 314.24900727 194 310 C188.68985746 303.55309361 182.82873116 297.70050563 176.9140625 291.81640625 C175.84624655 290.75045891 174.77865378 289.68428795 173.71127319 288.61790466 C170.92207682 285.83249861 168.129889 283.05011071 165.33703613 280.26837158 C162.47936425 277.42098936 159.62457498 274.57072014 156.76953125 271.72070312 C151.18248158 266.14432919 145.59226366 260.57114506 140 255 C136.13533667 256.58780359 133.69940845 259.05933229 130.77246094 262.00048828 C130.26469116 262.507966 129.75692139 263.01544373 129.23376465 263.53829956 C127.56251491 265.21093869 125.89845444 266.89054217 124.234375 268.5703125 C123.07467623 269.73374278 121.91453408 270.89673126 120.75396729 272.05929565 C117.70490648 275.115982 114.66190037 278.17862744 111.62011719 281.24255371 C108.51340087 284.36975165 105.40099455 287.49127507 102.2890625 290.61328125 C96.18712583 296.7366488 90.09157402 302.8663236 84 309 C88.35589576 314.23224486 92.96351864 319.03146157 97.84765625 323.76953125 C99.35541841 325.25003953 100.86256106 326.73117894 102.36914062 328.21289062 C104.71551553 330.51609125 107.06532492 332.81523855 109.42602539 335.10375977 C111.72418598 337.33482777 114.00566984 339.58190687 116.28515625 341.83203125 C117.33377586 342.83723564 117.33377586 342.83723564 118.40357971 343.86274719 C124.76158078 350.18606729 129.546344 357.61948103 130.0625 366.78125 C129.80048755 376.08269186 126.15804977 381.84195023 119.6875 388.3125 C112.79961826 392.637449 105.80982452 393.98238851 97.8515625 392.63671875 C86.64250817 389.74596263 78.27366157 378.41594319 70.3984375 370.49609375 C69.42646038 369.52224503 68.45425741 368.54862168 67.48184204 367.57521057 C64.9578625 365.04746418 62.43690373 362.51672707 59.91662598 359.98529053 C57.33039871 357.38872163 54.74123761 354.79508158 52.15234375 352.20117188 C47.09873546 347.13692954 42.04832203 342.06951247 37 337 C33.52760483 338.48589229 31.33506518 340.44739314 28.7097168 343.14257812 C27.87172043 343.99686401 27.03372406 344.8511499 26.17033386 345.73132324 C24.82338188 347.11728699 24.82338188 347.11728699 23.44921875 348.53125 C22.50844436 349.48846754 21.56684671 350.44487659 20.62446594 351.4005127 C16.63136083 355.45150741 12.64806988 359.51194297 8.67993164 363.58740234 C6.24817386 366.08383099 3.80418259 368.5677242 1.35221291 371.04429626 C-0.02569797 372.44328306 -1.38974832 373.85587831 -2.75349426 375.26867676 C-11.0196254 383.60145796 -11.0196254 383.60145796 -17 384 C-19.97 382.515 -19.97 382.515 -23 381 C-26.96 384.96 -30.92 388.92 -35 393 C-34.34 394.32 -33.68 395.64 -33 397 C-32.3125 400.125 -32.3125 400.125 -33 404 C-36.13377284 408.225456 -39.7614648 412.00038039 -43.68359375 415.50390625 C-45.37523913 417.42645872 -45.94337185 419.26381071 -46.75 421.6875 C-50.2359506 430.62350022 -55.83230319 435.94644351 -64.55859375 439.921875 C-73.34406039 442.67418918 -82.15148095 442.33180342 -90.5625 438.5 C-98.80864419 433.70000562 -103.43711333 427.87620835 -106.34375 418.79296875 C-108.4022988 410.03188308 -107.12519753 401.37360353 -102.59375 393.58203125 C-97.79493054 386.82520291 -91.62845951 382.62487262 -83.83311462 379.88822937 C-78.97656168 377.80261902 -75.69796552 374.22666518 -72.04516602 370.49926758 C-70.90246498 369.3574427 -70.90246498 369.3574427 -69.73667908 368.19255066 C-67.23281734 365.68591271 -64.74340523 363.16542746 -62.25390625 360.64453125 C-60.51600678 358.89916783 -58.77721933 357.15468818 -57.0375824 355.41105652 C-52.46998522 350.82821554 -47.91452998 346.23348815 -43.36151123 341.63616943 C-38.70987886 336.94355799 -34.0468471 332.2623045 -29.38476562 327.58007812 C-20.24532838 318.39779202 -11.11828702 309.2032868 -2 300 C-3.73250308 296.29736184 -5.81543388 293.97106603 -8.75341797 291.09887695 C-9.23496338 290.62507095 -9.71650879 290.15126495 -10.21264648 289.6631012 C-11.25598737 288.63737513 -12.30152142 287.61387616 -13.34899521 286.59237099 C-15.01114534 284.96977454 -16.66555477 283.33965204 -18.31790161 281.70707703 C-23.01588422 277.06699384 -27.72320186 272.43656505 -32.44580078 267.8215332 C-35.3378199 264.99431477 -38.21721634 262.15473537 -41.08926773 259.30724144 C-42.18094271 258.22973949 -43.27725715 257.1569155 -44.37841415 256.08910561 C-51.31690407 249.35777278 -56.92011991 243.42714841 -58.56640625 233.62890625 C-58.55555584 225.11133729 -57.08349474 218.67817844 -51.390625 212.15625 C-45.8815389 207.00095842 -40.04487382 204.8860057 -32.5625 204.5625 C-15.07494918 205.18877592 -2.30188028 223.57052678 9.125 235.0625 C10.66903625 236.61156199 12.21330526 238.160392 13.7578125 239.70898438 C17.50789568 243.46998643 21.25509688 247.23384039 25 251 C31.44690639 245.68985746 37.29949437 239.82873116 43.18359375 233.9140625 C44.24954109 232.84624655 45.31571205 231.77865378 46.38209534 230.71127319 C49.16750139 227.92207682 51.94988929 225.129889 54.73162842 222.33703613 C57.57901064 219.47936425 60.42927986 216.62457498 63.27929688 213.76953125 C68.85567081 208.18248158 74.42885494 202.59226366 80 197 C78.41100854 193.13087022 75.93639608 190.69519729 72.99191284 187.76486206 C72.21989963 186.99240227 72.21989963 186.99240227 71.4322902 186.20433724 C69.70679724 184.48023297 67.97426337 182.76338277 66.24169922 181.04638672 C65.00272504 179.81125119 63.76420568 178.57565929 62.52610779 177.33964539 C59.85797704 174.67783919 57.18676927 172.0191733 54.51317978 169.36285019 C50.27952169 165.15624873 46.05351225 160.94201967 41.8286438 156.72659302 C32.08849451 147.01053999 22.33842482 137.30446179 12.58815765 127.59856415 C3.66748544 118.71831538 -5.25103868 109.83593754 -14.16144741 100.94538891 C-18.35457452 96.76218439 -22.5525206 92.58389702 -26.75430608 88.40939021 C-29.37896801 85.79974082 -31.99939552 83.18587013 -34.61874199 80.57088661 C-35.8262446 79.36710076 -37.03546097 78.16503088 -38.24659538 76.96489906 C-55.88879338 59.47782069 -55.88879338 59.47782069 -61.25 48.3125 C-61.57935547 47.63171387 -61.90871094 46.95092773 -62.24804688 46.24951172 C-69.79366967 30.08619001 -71.06281335 13.87009738 -67.046875 -3.3984375 C-65.76235835 -6.59055723 -64.80426513 -7.97271279 -62 -10 C-42.32893788 -17.10272632 -16.67513136 -11.85695349 0 0 Z " fill="#010101" transform="translate(117,71)"/>
<path d="M0 0 C11.9538295 6.0357592 21.11059732 16.72550461 30.44316101 26.11799622 C32.47517147 28.16293602 34.51043507 30.20458965 36.54650879 32.2454834 C40.8554679 36.56577116 45.16043015 40.89002781 49.46484375 45.21484375 C54.48380429 50.25742489 59.50440007 55.29835596 64.52919006 60.33512878 C66.53546856 62.34789379 68.53871824 64.36364057 70.54187012 66.3795166 C71.76279267 67.60406889 72.98385427 68.82848257 74.20507812 70.05273438 C75.04034531 70.89575104 75.04034531 70.89575104 75.89248657 71.75579834 C79.89624667 75.84279427 79.89624667 75.84279427 85.33984375 76.90234375 C89.1680992 76.94689506 89.1680992 76.94689506 92.96484375 74.71484375 C97.25484375 79.00484375 101.54484375 83.29484375 105.96484375 87.71484375 C104.97484375 89.69484375 104.97484375 89.69484375 103.96484375 91.71484375 C103.39547439 95.00453336 103.11133042 97.44584353 105.04545689 100.32149506 C111.55863421 107.52998936 118.46839413 114.35056843 125.34545898 121.20898438 C126.80481598 122.66805897 128.26395216 124.12735445 129.72288513 125.58685303 C133.66639029 129.53064408 137.61296226 133.471353 141.56010699 137.41150093 C145.69120525 141.53633095 149.8194555 145.66400936 153.94801331 149.79138184 C161.75853756 157.59880299 169.57160655 165.40367238 177.3856011 173.20762014 C186.28479311 182.09561926 195.1811322 190.98647165 204.07723701 199.87756062 C222.36994123 218.15982358 240.66621152 236.43851425 258.96484375 254.71484375 C258.00256791 255.84229459 257.03961581 256.96916828 256.07637596 258.09579563 C255.27211821 259.03717942 255.27211821 259.03717942 254.45161283 259.99758106 C252.92934816 261.75584222 251.3616143 263.4391593 249.71337891 265.07983398 C249.15325104 265.63988632 248.59312317 266.19993866 248.01602173 266.77696228 C247.43452362 267.3532991 246.85302551 267.92963593 246.25390625 268.5234375 C245.64090668 269.13502213 245.0279071 269.74660675 244.39633179 270.37672424 C242.46319811 272.30431934 240.52659388 274.22838303 238.58984375 276.15234375 C237.26799676 277.46916779 235.94638003 278.78622301 234.625 280.10351562 C231.40760076 283.30996748 228.18708694 286.51326004 224.96484375 289.71484375 C221.52625732 288.23104997 219.28325145 286.28898098 216.63750839 283.65595055 C215.77407908 282.80143692 214.91064977 281.9469233 214.02105594 281.06651533 C213.06746818 280.11274898 212.11398098 279.15888209 211.1605835 278.20492554 C210.14441956 277.19536152 209.12783105 276.1862247 208.11085439 275.17747939 C205.31459515 272.40124796 202.52464943 269.6187461 199.73573518 266.8351388 C196.72752595 263.83473976 193.71366037 260.84003113 190.70063782 257.84446716 C183.42208922 250.60544432 176.15323273 243.35672661 168.88553131 236.10681623 C165.46026047 232.69031511 162.03400959 229.27479713 158.60788727 225.85914993 C147.21330006 214.4985932 135.82123732 203.13551393 124.43641281 191.76517296 C121.48187866 188.81445844 118.527334 185.86375446 115.57275391 182.91308594 C114.83843255 182.17973206 114.10411119 181.44637818 113.34753767 180.69080146 C101.46525334 168.82509933 89.56604119 156.97652712 77.65958831 145.13508169 C65.42669723 132.96843514 53.20901495 120.78668227 41.00601029 108.59005892 C34.15787481 101.74624499 27.30336282 94.9091019 20.4318161 88.08878708 C14.57634928 82.27687644 8.73489865 76.4513154 2.91086355 70.60790096 C-0.05732823 67.63065941 -3.03142687 64.66007826 -6.0236187 61.7069416 C-34.70065868 33.38314884 -34.70065868 33.38314884 -36.26220703 13.87890625 C-36.2517334 13.04101562 -36.24125977 12.203125 -36.23046875 11.33984375 C-36.22402344 10.41816406 -36.21757813 9.49648437 -36.2109375 8.546875 C-36.19417969 7.61230469 -36.17742188 6.67773438 -36.16015625 5.71484375 C-36.15113281 4.74933594 -36.14210937 3.78382812 -36.1328125 2.7890625 C-36.1094626 0.43072276 -36.07671672 -1.92707911 -36.03515625 -4.28515625 C-24.53059198 -8.12001101 -10.72057935 -4.53934441 0 0 Z " fill="#6DDBF8" transform="translate(100.03515625,79.28515625)"/>
<path d="M0 0 C0.08847317 3.45816686 0.14087725 6.91603579 0.1875 10.375 C0.21263672 11.34050781 0.23777344 12.30601563 0.26367188 13.30078125 C0.42415465 29.24207045 -6.69000108 42.23441655 -17.63104117 53.42474389 C-19.45224685 55.25458712 -21.28762859 57.06944064 -23.1237793 58.88427734 C-24.44960288 60.2166082 -25.77414198 61.55021829 -27.09750366 62.88499451 C-30.66405261 66.47444496 -34.2489959 70.04496173 -37.83845878 73.61148024 C-41.60018793 77.35419226 -45.34675482 81.11203273 -49.09565735 84.86758423 C-55.38207357 91.16032056 -61.68062109 97.44071087 -67.98657227 103.71386719 C-75.28161624 110.97128602 -82.55665767 118.24830353 -89.82155484 125.53589094 C-96.81904941 132.55429769 -103.83052882 139.55856996 -110.84848976 146.55650711 C-113.83354561 149.53356763 -116.81353488 152.51556846 -119.78958702 155.50162888 C-123.28557756 159.00813452 -126.79358228 162.50215168 -130.31142807 165.98672676 C-131.60254457 167.26960798 -132.88939273 168.5568008 -134.17170525 169.84848213 C-135.91686384 171.60499109 -137.67654088 173.34548628 -139.44096375 175.08261108 C-139.94981556 175.60193439 -140.45866738 176.12125769 -140.98293895 176.65631807 C-142.41901684 178.05101585 -142.41901684 178.05101585 -145 180 C-149.34773976 179.90412383 -151.8115915 176.58599298 -154.68359375 173.64453125 C-155.22097672 173.10527512 -155.75835968 172.56601898 -156.31202698 172.01042175 C-157.44762597 170.86810635 -158.57962429 169.72220174 -159.70825195 168.57299805 C-161.42094097 166.82935827 -163.14387372 165.09642071 -164.86914062 163.36523438 C-165.97457948 162.25061569 -167.07941653 161.13539977 -168.18359375 160.01953125 C-168.94632851 159.25042168 -168.94632851 159.25042168 -169.72447205 158.46577454 C-172.18495428 155.95677482 -174.51846945 153.41175341 -176.73852539 150.6862793 C-178.71655671 147.97662907 -178.71655671 147.97662907 -181 147 C-179.4132373 143.1103778 -176.76298213 140.47465755 -173.83573914 137.56158447 C-173.03839103 136.75638135 -173.03839103 136.75638135 -172.22493488 135.93491149 C-170.44206415 134.1370371 -168.65211383 132.34638518 -166.86206055 130.55566406 C-165.58198804 129.26796983 -164.30231958 127.97987385 -163.02302551 126.69140625 C-159.54391911 123.19033729 -156.05824577 119.69587911 -152.57068229 116.20323658 C-150.38891465 114.01782456 -148.20845094 111.83112006 -146.0284214 109.6439743 C-138.41326761 102.00431074 -130.79239492 94.3704001 -123.16674805 86.74121094 C-116.07614751 79.64698375 -108.99875703 72.53976403 -101.9273507 65.42640901 C-95.84521078 59.30946707 -89.7533775 53.20229016 -83.65415984 47.1023767 C-80.01653054 43.46395735 -76.38292269 39.82173763 -72.75922203 36.16944122 C-69.34346979 32.72734184 -65.91571779 29.29764384 -62.47880363 25.87667847 C-61.22693024 24.62660692 -59.97922682 23.37234146 -58.73630905 22.11336517 C-48.31923657 11.57008507 -37.98683723 2.8974552 -23 0 C-22.030625 -0.226875 -21.06125 -0.45375 -20.0625 -0.6875 C-13.30464412 -1.37707713 -6.65066073 -1.41038546 0 0 Z " fill="#6DDBF8" transform="translate(448,75)"/>
<path d="M0 0 C3.35311206 0.93346709 5.14131057 2.86527573 7.1328125 5.59375 C9.27530232 9.39732887 11.11676995 13.31900092 12.9453125 17.28125 C13.44740234 18.33892578 13.94949219 19.39660156 14.46679688 20.48632812 C18.1328125 28.29219813 18.1328125 28.29219813 18.1328125 30.59375 C18.8127124 30.67415527 19.4926123 30.75456055 20.19311523 30.83740234 C23.31942652 31.20982892 26.44485313 31.58924297 29.5703125 31.96875 C30.63958984 32.09507813 31.70886719 32.22140625 32.81054688 32.3515625 C49.69439797 34.41686539 49.69439797 34.41686539 53.1953125 37.28125 C54.56985545 40.67178927 54.63366764 42.96255027 54.1328125 46.59375 C51.64704918 50.32239498 48.74845634 52.97813986 45.3828125 55.90625 C44.71121094 56.50824219 44.03960937 57.11023437 43.34765625 57.73046875 C41.1328125 59.59375 41.1328125 59.59375 38.51171875 61.30078125 C35.44735229 63.59089378 33.83469252 65.13775834 32.1328125 68.59375 C31.82022525 74.82113747 33.36306046 81.01664746 34.62841797 87.07958984 C35.3023336 90.4387298 35.73430268 93.74594343 36.0703125 97.15625 C36.18246094 98.12691406 36.29460937 99.09757812 36.41015625 100.09765625 C36.1328125 102.59375 36.1328125 102.59375 34.44921875 104.87109375 C31.73443632 106.89001289 30.52626256 107.56005617 27.1328125 107.59375 C24.30847625 106.67225371 21.7155859 105.37416156 19.0703125 104.03125 C18.38259766 103.69544922 17.69488281 103.35964844 16.98632812 103.01367188 C16.28056641 102.66755859 15.57480469 102.32144531 14.84765625 101.96484375 C14.1014502 101.60648437 13.35524414 101.248125 12.58642578 100.87890625 C10.1328125 99.59375 10.1328125 99.59375 7.34716797 97.76171875 C1.54777729 94.13272337 1.54777729 94.13272337 -5.03735352 94.3347168 C-8.39530135 95.93181776 -11.47837288 97.72585183 -14.6171875 99.71875 C-27.80315507 107.68428035 -27.80315507 107.68428035 -34.8671875 106.59375 C-37.3671875 105.09375 -37.3671875 105.09375 -38.8671875 102.59375 C-39.24966456 97.62154821 -38.68608032 93.34889134 -37.640625 88.4765625 C-34.29518052 76.47314069 -34.29518052 76.47314069 -36.546875 64.91796875 C-39.16696125 62.35761091 -41.7443918 60.49789372 -44.8671875 58.59375 C-46.34951652 57.35098931 -47.81062982 56.08217124 -49.2421875 54.78125 C-49.87898437 54.22695313 -50.51578125 53.67265625 -51.171875 53.1015625 C-56.57509714 48.29593175 -56.57509714 48.29593175 -57.20703125 44.61328125 C-57.33639268 41.77250429 -57.38449177 39.37997779 -55.78515625 36.94921875 C-52.92998692 34.93141069 -50.17350465 34.62814911 -46.7421875 34.03125 C-46.04802734 33.90903076 -45.35386719 33.78681152 -44.63867188 33.66088867 C-36.7564646 32.31989206 -28.81624571 31.42997518 -20.8671875 30.59375 C-20.69388916 29.51697998 -20.69388916 29.51697998 -20.51708984 28.41845703 C-19.83607615 25.45852901 -18.82115195 23.11372513 -17.46875 20.3984375 C-16.98921875 19.43550781 -16.5096875 18.47257812 -16.015625 17.48046875 C-15.51289063 16.48660156 -15.01015625 15.49273437 -14.4921875 14.46875 C-13.9971875 13.46714844 -13.5021875 12.46554687 -12.9921875 11.43359375 C-12.51007813 10.47324219 -12.02796875 9.51289063 -11.53125 8.5234375 C-11.09248535 7.64929199 -10.6537207 6.77514648 -10.20166016 5.87451172 C-7.41724061 1.11563002 -5.61943937 0.26444421 0 0 Z " fill="#010000" transform="translate(257.8671875,-0.59375)"/>
<path d="M0 0 C0.70189453 0.00451172 1.40378906 0.00902344 2.12695312 0.01367188 C3.85550538 0.02543073 5.58401365 0.04336546 7.3125 0.0625 C7.3125 0.3925 7.3125 0.7225 7.3125 1.0625 C5.3325 1.0625 3.3525 1.0625 1.3125 1.0625 C4.59145692 23.3220856 12.49722113 38.9333596 28.54408264 54.77510071 C29.54677925 55.7795473 30.54859404 56.78487479 31.5496158 57.79099053 C34.26818261 60.51839731 36.99888377 63.23334823 39.73195112 65.9462136 C42.69005229 68.88689368 45.63643374 71.8392782 48.58432007 74.79019165 C53.68179488 79.88975463 58.7864887 84.9819955 63.89628792 90.06920815 C71.28400255 97.42428862 78.66052765 104.79050923 86.03444796 112.15941622 C98.00106629 124.11729974 109.97657289 136.06624015 121.95776367 148.00952148 C133.59007816 159.60506881 145.21814594 171.2048479 156.84057617 182.81030273 C157.55807759 183.52675326 158.27557902 184.24320379 159.01482291 184.98136494 C162.6146173 188.57593884 166.21432888 192.17059567 169.8139993 195.76529372 C199.63400561 225.54389452 229.46847841 255.30796851 259.3125 285.0625 C258.37659496 286.1680189 257.43870142 287.27185453 256.5 288.375 C255.97792969 288.98988281 255.45585937 289.60476563 254.91796875 290.23828125 C253.44077531 291.91674679 251.91210869 293.50132034 250.3125 295.0625 C246.87391357 293.57870622 244.6309077 291.63663723 241.98516464 289.0036068 C241.12173533 288.14909317 240.25830602 287.29457955 239.36871219 286.41417158 C238.41512443 285.46040523 237.46163723 284.50653834 236.50823975 283.55258179 C235.49207581 282.54301777 234.4754873 281.53388095 233.45851064 280.52513564 C230.6622514 277.74890421 227.87230568 274.96640235 225.08339143 272.18279505 C222.0751822 269.18239601 219.06131662 266.18768738 216.04829407 263.19212341 C208.76974547 255.95310057 201.50088898 248.70438286 194.23318756 241.45447248 C190.80791672 238.03797136 187.38166584 234.62245338 183.95554352 231.20680618 C172.56095631 219.84624945 161.16889357 208.48317018 149.78406906 197.11282921 C146.82953491 194.16211469 143.87499025 191.21141071 140.92041016 188.26074219 C140.1860888 187.52738831 139.45176744 186.79403443 138.69519392 186.03845771 C126.81290959 174.17275558 114.91369744 162.32418337 103.00724456 150.48273794 C90.77435348 138.31609139 78.5566712 126.13433852 66.35366654 113.93771517 C59.50553106 107.09390124 52.65101907 100.25675815 45.77947235 93.43644333 C39.92400553 87.62453269 34.0825549 81.79897165 28.2585198 75.95555721 C25.29032802 72.97831566 22.31622938 70.00773451 19.32403755 67.05459785 C-9.35300243 38.73080509 -9.35300243 38.73080509 -10.91455078 19.2265625 C-10.90407715 18.38867188 -10.89360352 17.55078125 -10.8828125 16.6875 C-10.87636719 15.76582031 -10.86992188 14.84414062 -10.86328125 13.89453125 C-10.84652344 12.95996094 -10.82976563 12.02539062 -10.8125 11.0625 C-10.80347656 10.09699219 -10.79445312 9.13148437 -10.78515625 8.13671875 C-10.76180635 5.77837901 -10.72906047 3.42057714 -10.6875 1.0625 C-7.06882441 -0.1437252 -3.76243749 -0.04566918 0 0 Z " fill="#49B4CD" transform="translate(74.6875,73.9375)"/>
<path d="M0 0 C3.16622706 2.00312324 4.57626493 3.39651333 5.54296875 7.0546875 C5.84293911 10.32606233 5.684883 12.95923864 3.84776688 15.75095558 C-2.21167441 22.34099561 -8.52951724 28.67006606 -14.86425781 34.99365234 C-16.16110549 36.291857 -17.45774075 37.59027387 -18.75418091 38.8888855 C-22.25565921 42.39490046 -25.7602663 45.89777183 -29.26560307 49.39992857 C-32.93855956 53.07034465 -36.60906585 56.74320972 -40.27996826 60.41567993 C-46.43810395 66.57563126 -52.59833725 72.73347899 -58.75976562 78.89013672 C-65.88550446 86.01042201 -73.00761741 93.13431889 -80.12788129 100.26007879 C-86.24677365 106.38350511 -92.3676075 112.50498564 -98.49007678 118.62483561 C-102.14472323 122.27792242 -105.79868908 125.93168311 -109.45090485 129.58720016 C-112.87959602 133.01877457 -116.31071383 136.44790382 -119.74374008 139.87514114 C-121.00437832 141.13445474 -122.26416192 142.39462451 -123.52303696 143.65570068 C-125.23809714 145.3734836 -126.95619188 147.08817222 -128.67510986 148.80209351 C-129.17520168 149.30441604 -129.67529349 149.80673857 -130.1905396 150.324283 C-133.69444721 153.80838995 -135.82167551 155.86696336 -140.875 156.4375 C-144.47514001 156.37119908 -144.95761409 156.03517128 -147.9375 153.5625 C-148.618125 152.716875 -149.29875 151.87125 -150 151 C-150.33 150.67 -150.66 150.34 -151 150 C-151.58292166 146.79393087 -151.77256955 145.09882477 -151 142 C-149.42400169 139.82527924 -149.42400169 139.82527924 -147.26766968 137.52966309 C-146.03399721 136.21224373 -146.03399721 136.21224373 -144.77540207 134.86820984 C-139.59669814 129.51633318 -134.36299133 124.22411066 -129.09228516 118.96289062 C-127.81484714 117.68409466 -126.53762132 116.4050867 -125.2605896 115.12588501 C-121.82120496 111.68197614 -118.37870687 108.24119586 -114.93546724 104.80114174 C-111.32391276 101.19213305 -107.71481456 97.58066932 -104.10531616 93.96960449 C-98.05328905 87.91576378 -91.99916887 81.86402225 -85.94384766 75.81347656 C-78.94189679 68.81698399 -71.9435788 61.81687308 -64.94710314 54.81490564 C-58.9300803 48.79334911 -52.91111642 42.77373798 -46.89051664 36.75575781 C-43.29849849 33.1652988 -39.70715986 29.57416711 -36.11757278 25.98127747 C-32.74959234 22.61041402 -29.37918587 19.24199545 -26.00687027 15.87546921 C-24.76880619 14.63872968 -23.53159655 13.40113413 -22.29529572 12.16263199 C-20.61099591 10.4756092 -18.92366173 8.79168162 -17.23550415 7.10852051 C-16.74455847 6.61534411 -16.2536128 6.12216771 -15.74778998 5.61404657 C-10.64904298 0.54463399 -7.13071697 -1.17388335 0 0 Z " fill="#FCA72B" transform="translate(432,292)"/>
<path d="M0 0 C3.18180086 0.85895423 4.63647667 2.18372789 7.03488922 4.43605995 C7.91091293 5.2562524 8.78693665 6.07644485 9.68950653 6.92149162 C15.03867183 12.0970399 20.32774473 17.32804667 25.58603668 22.59581947 C26.86483265 23.87325749 28.14384061 25.15048331 29.4230423 26.42751503 C32.86695117 29.86689967 36.30773145 33.30939776 39.74778557 36.75263739 C43.35679426 40.36419186 46.96825799 43.97329007 50.57932281 47.58278847 C56.63316353 53.63481558 62.68490506 59.68893576 68.73545074 65.74425697 C75.73194331 72.74620784 82.73205423 79.74452583 89.73402166 86.74100149 C95.7555782 92.75802433 101.77518932 98.77698821 107.7931695 104.79758799 C111.38362851 108.38960614 114.9747602 111.98094477 118.56764984 115.57053185 C121.93851328 118.93851229 125.30693186 122.30891876 128.6734581 125.68123436 C129.91019763 126.91929844 131.14779318 128.15650808 132.38629532 129.39280891 C134.07331811 131.07710872 135.75724569 132.7644429 137.4404068 134.45260048 C137.9335832 134.94354616 138.4267596 135.43449183 138.93488073 135.94031465 C142.39713015 139.42259856 144.4193556 141.54046951 144.98642731 146.56310463 C144.92012639 150.16324464 144.58409859 150.64571872 142.11142731 153.62560463 C141.26580231 154.30622963 140.42017731 154.98685463 139.54892731 155.68810463 C139.21892731 156.01810463 138.88892731 156.34810463 138.54892731 156.68810463 C135.3431447 157.2709742 133.64756661 157.46021083 130.54892731 156.68810463 C128.37799168 155.11589146 128.37799168 155.11589146 126.08531952 152.96250343 C125.20699022 152.1400054 124.32866093 151.31750736 123.42371559 150.47008514 C122.46333321 149.54495366 121.50513513 148.61755026 120.54892731 147.68810463 C120.06100228 147.21427196 119.57307725 146.74043929 119.07036662 146.25224805 C115.14816335 142.42579991 111.27525309 138.55074046 107.40415192 134.67272377 C106.11388137 133.38381112 104.82339882 132.09511068 103.53272247 130.80660439 C100.05788992 127.33629626 96.58618607 123.86287444 93.11520839 120.38871121 C89.47503498 116.74599264 85.83240726 113.1057296 82.19017792 109.46506691 C76.08506261 103.36176517 69.98204649 97.25637031 63.88022614 91.14977455 C56.82123074 84.08531857 49.75861382 77.02449851 42.69414324 69.96551806 C36.6207994 63.89670531 30.54939768 57.82595479 24.47962958 51.75356573 C20.85734495 48.12972082 17.23438488 44.50655814 13.60967064 40.88514328 C10.21008504 37.48843697 6.8129371 34.08931172 3.41769028 30.68826866 C2.16924376 29.43849569 0.91993772 28.18958068 -0.33027077 26.94157028 C-2.03077665 25.24377988 -3.72819951 23.54296718 -5.42484283 21.84131813 C-5.92482302 21.34356866 -6.42480321 20.8458192 -6.93993431 20.33298641 C-10.28037212 16.97328279 -11.61935696 15.10621472 -11.82607269 10.37560463 C-11.76297252 6.81904931 -11.49462907 5.75695181 -9.51357269 2.62560463 C-6.08651029 0.45746311 -4.02653301 -0.33245691 0 0 Z " fill="#ED931B" transform="translate(86.4510726928711,291.3118953704834)"/>
<path d="M0 0 C2.99943905 1.34572887 5.08076179 2.83537101 7.39160156 5.16455078 C8.35214447 6.12532028 8.35214447 6.12532028 9.33209229 7.10549927 C10.01140808 7.79513763 10.69072388 8.484776 11.390625 9.1953125 C12.09523865 9.90275604 12.79985229 10.61019958 13.52581787 11.33908081 C15.7719539 13.59639862 18.01103009 15.86057633 20.25 18.125 C21.77297717 19.65800953 23.29640939 21.19056715 24.8203125 22.72265625 C28.55216815 26.47654573 32.27825351 30.23608914 36 34 C30.5664118 40.61072987 24.53553957 46.59214196 18.4765625 52.62109375 C17.36390615 53.73188169 16.25147284 54.8428931 15.13925171 55.95411682 C12.2316873 58.85788934 9.32113095 61.75864436 6.40991211 64.65875244 C3.43159571 67.62678263 0.45615894 70.59769662 -2.51953125 73.56835938 C-8.34356123 79.38171083 -14.1707595 85.19187334 -20 91 C-22.99943905 89.65427113 -25.08076179 88.16462899 -27.39160156 85.83544922 C-28.35214447 84.87467972 -28.35214447 84.87467972 -29.33209229 83.89450073 C-30.01140808 83.20486237 -30.69072388 82.515224 -31.390625 81.8046875 C-32.09523865 81.09724396 -32.79985229 80.38980042 -33.52581787 79.66091919 C-35.7719539 77.40360138 -38.01103009 75.13942367 -40.25 72.875 C-41.77297717 71.34199047 -43.29640939 69.80943285 -44.8203125 68.27734375 C-48.55216815 64.52345427 -52.27825351 60.76391086 -56 57 C-50.5664118 50.38927013 -44.53553957 44.40785804 -38.4765625 38.37890625 C-37.36390615 37.26811831 -36.25147284 36.1571069 -35.13925171 35.04588318 C-32.2316873 32.14211066 -29.32113095 29.24135564 -26.40991211 26.34124756 C-23.43159571 23.37321737 -20.45615894 20.40230338 -17.48046875 17.43164062 C-11.65643877 11.61828917 -5.8292405 5.80812666 0 0 Z " fill="#6DDBF8" transform="translate(209,278)"/>
<path d="M0 0 C4.00374431 1.83692389 6.71957934 4.49117916 9.75 7.625 C10.25660156 8.140625 10.76320313 8.65625 11.28515625 9.1875 C12.52803902 10.45383339 13.76465276 11.7263144 15 13 C10.27488809 18.6879506 5.20652103 23.90941433 -0.046875 29.109375 C-0.89928772 29.9580011 -1.75170044 30.8066272 -2.62994385 31.68096924 C-5.33421239 34.37308962 -8.04169968 37.06193604 -10.75 39.75 C-14.33098217 43.30443297 -17.90867423 46.86212999 -21.484375 50.421875 C-22.72027374 51.64532623 -22.72027374 51.64532623 -23.98114014 52.89349365 C-24.74243225 53.65148254 -25.50372437 54.40947144 -26.28808594 55.19042969 C-26.9583783 55.85548523 -27.62867065 56.52054077 -28.3192749 57.20574951 C-31.17006313 60.24909561 -32.16365471 62.17093169 -32.24609375 66.24609375 C-32.76072079 71.73137329 -35.16498551 74.37448237 -39.0625 78.0625 C-39.61099609 78.64193359 -40.15949219 79.22136719 -40.72460938 79.81835938 C-44.85861336 83.87571902 -44.85861336 83.87571902 -48.03588867 84.22167969 C-48.72013916 84.1859082 -49.40438965 84.15013672 -50.109375 84.11328125 C-54.00075587 83.63845161 -54.00075587 83.63845161 -56.79296875 85.7578125 C-57.58316406 86.53898437 -58.37335938 87.32015625 -59.1875 88.125 C-60.02925781 88.95386719 -60.87101562 89.78273438 -61.73828125 90.63671875 C-62.48464844 91.41660156 -63.23101562 92.19648438 -64 93 C-64.52980469 93.52207031 -65.05960938 94.04414063 -65.60546875 94.58203125 C-68.95159965 98.15466947 -70.29473074 102.17135461 -71.96875 106.66015625 C-73.7030716 110.59522685 -76.40287867 112.84346387 -79.8125 115.3125 C-84.16966722 116.68189541 -88.01175506 116.85767429 -92.19140625 115.0546875 C-96.21541899 112.69808335 -99.42636436 110.52420247 -101 106 C-101.79357497 101.24603675 -102.04412397 97.01462382 -99.78125 92.6484375 C-96.7564096 88.83885077 -93.97918139 86.77720396 -89.375 85.25 C-84.78139393 83.66141837 -81.67329851 81.21988533 -78.21411133 77.90332031 C-77.37831779 77.11641752 -77.37831779 77.11641752 -76.52563953 76.31361771 C-68.93978202 69.12228708 -61.57665839 61.70046926 -54.19921875 54.296875 C-52.62618186 52.72196799 -51.0529203 51.14728535 -49.47944641 49.57281494 C-45.38221795 45.47180799 -41.288004 41.36780485 -37.19445801 37.26312256 C-32.99933026 33.05767909 -28.80129288 28.85514224 -24.60351562 24.65234375 C-16.39952913 16.4377025 -8.19873137 8.21988598 0 0 Z " fill="#BF6A3C" transform="translate(127,381)"/>
<path d="M0 0 C2.98293241 1.34061711 5.06238209 2.81560272 7.36386108 5.13008118 C8.33093742 6.09520126 8.33093742 6.09520126 9.31755066 7.07981873 C10.01375015 7.78477982 10.70994965 8.48974091 11.42724609 9.21606445 C12.16921738 9.95934998 12.91118866 10.7026355 13.67564392 11.46844482 C16.12953354 13.92882978 18.57637339 16.39610927 21.0234375 18.86328125 C22.72919629 20.57531147 24.43547194 22.28682687 26.14224243 23.99784851 C30.63881486 28.5077338 35.12979447 33.0231443 39.61920166 37.54016113 C46.7967495 44.7607892 53.98094264 51.97478938 61.1684761 59.1854763 C63.67571394 61.70291439 66.17949535 64.22375264 68.68295288 66.74494934 C70.22650597 68.29533394 71.77017073 69.84560736 73.31396484 71.39575195 C74.35219139 72.44408455 74.35219139 72.44408455 75.41139221 73.51359558 C82.41373584 81.04992056 82.41373584 81.04992056 91.4375 85.3125 C96.88251469 86.97369092 100.27937132 89.99809883 103 95 C104.11763587 99.89922573 103.64386402 104.35582458 101.4375 108.875 C97.55409014 113.85373059 94.3058287 115.6705959 88.0625 116.5625 C83.22505002 116.29898132 79.65358655 114.05311283 76 111 C74.17676549 108.7366744 73.22338524 106.86705545 72.50004673 104.0594635 C70.67885858 97.25979768 67.22829685 93.3975039 62.25561523 88.55859375 C61.46835052 87.76884659 60.68108582 86.97909943 59.8699646 86.16542053 C57.28029043 83.57483264 54.66995813 81.00620685 52.05859375 78.4375 C50.25039563 76.63796091 48.44345204 74.83716045 46.63771057 73.03515625 C42.85956153 69.27069761 39.07250382 65.51558299 35.27661133 61.76904297 C29.92038681 56.48241177 24.58444376 51.17566263 19.25211418 45.86494637 C15.1082161 41.73933101 10.95868704 37.61938171 6.80859375 33.5 C5.92156706 32.61939911 5.03454037 31.73879822 4.12063408 30.83151245 C1.62167187 28.35345228 -0.8809316 25.87913915 -3.38500977 23.40625 C-4.1305159 22.66657486 -4.87602203 21.92689972 -5.64411926 21.16481018 C-6.32407959 20.49489548 -7.00403992 19.82498077 -7.7046051 19.13476562 C-8.29618691 18.55005493 -8.88776873 17.96534424 -9.49727726 17.36291504 C-10.97362745 15.90084334 -10.97362745 15.90084334 -13 15 C-11.38989473 10.92623969 -8.46177729 8.23492931 -5.375 5.25 C-4.859375 4.74339844 -4.34375 4.23679687 -3.8125 3.71484375 C-2.54616661 2.47196098 -1.2736856 1.23534724 0 0 Z " fill="#925F3D" transform="translate(383,381)"/>
<path d="M0 0 C0 1.98 0 3.96 0 6 C-1.16015625 6.15855469 -2.3203125 6.31710938 -3.515625 6.48046875 C-29.37194441 10.24239677 -44.37984264 24.20635507 -62.30273438 42.18920898 C-63.50270438 43.38946174 -64.70289597 44.58949301 -65.90328979 45.7893219 C-69.13224355 49.01799104 -72.35812423 52.24971433 -75.58342552 55.48203158 C-78.96791098 58.87280963 -82.35526825 62.26071639 -85.74230957 65.64894104 C-92.14481259 72.05454113 -98.54476465 78.46268355 -104.94378328 84.87176424 C-112.22627453 92.1654571 -119.51162588 99.45629028 -126.79721355 106.74688995 C-141.15990616 121.11958169 -155.51936628 135.49549868 -169.87651825 149.87372494 C-171.25057376 151.24958793 -172.62504045 152.62504045 -174 154 C-175.23697917 152.47005208 -176.47395833 150.94010417 -177.7109375 149.41015625 C-178.9666391 147.86733563 -178.9666391 147.86733563 -181 147 C-179.4132373 143.1103778 -176.76298213 140.47465755 -173.83573914 137.56158447 C-173.03839103 136.75638135 -173.03839103 136.75638135 -172.22493488 135.93491149 C-170.44206415 134.1370371 -168.65211383 132.34638518 -166.86206055 130.55566406 C-165.58198804 129.26796983 -164.30231958 127.97987385 -163.02302551 126.69140625 C-159.54391911 123.19033729 -156.05824577 119.69587911 -152.57068229 116.20323658 C-150.38891465 114.01782456 -148.20845094 111.83112006 -146.0284214 109.6439743 C-138.41326761 102.00431074 -130.79239492 94.3704001 -123.16674805 86.74121094 C-116.07614751 79.64698375 -108.99875703 72.53976403 -101.9273507 65.42640901 C-95.84521078 59.30946707 -89.7533775 53.20229016 -83.65415984 47.1023767 C-80.01653054 43.46395735 -76.38292269 39.82173763 -72.75922203 36.16944122 C-69.34346979 32.72734184 -65.91571779 29.29764384 -62.47880363 25.87667847 C-61.22693024 24.62660692 -59.97922682 23.37234146 -58.73630905 22.11336517 C-48.31923657 11.57008507 -37.98683723 2.8974552 -23 0 C-22.030625 -0.226875 -21.06125 -0.45375 -20.0625 -0.6875 C-13.35663863 -1.37177157 -6.59005478 -1.5235723 0 0 Z " fill="#48B4CD" transform="translate(448,75)"/>
<path d="M0 0 C3.13163177 -0.52193863 4.95417686 -0.70278561 8 0 C10.18082428 1.56989479 10.18082428 1.56989479 12.47424316 3.72842407 C13.35195877 4.55143635 14.22967438 5.37444862 15.13398743 6.22240067 C20.48177614 11.40521616 25.77592504 16.63704443 31.03710938 21.90771484 C32.31590534 23.18515286 33.5949133 24.46237868 34.87411499 25.7394104 C38.31802386 29.17879504 41.75880414 32.62129313 45.19885826 36.06453276 C48.80786695 39.67608724 52.41933068 43.28518544 56.03039551 46.89468384 C62.08423622 52.94671095 68.13597775 59.00083113 74.18652344 65.05615234 C81.18301601 72.05810321 88.18312692 79.0564212 95.18509436 86.05289686 C101.20665089 92.0699197 107.22626202 98.08888358 113.24424219 104.10948336 C116.8347012 107.70150151 120.42583289 111.29284014 124.01872253 114.88242722 C127.38958598 118.25040766 130.75800455 121.62081413 134.12453079 124.99312973 C135.36127032 126.23119381 136.59886587 127.46840345 137.83736801 128.70470428 C139.5243908 130.38900409 141.20831838 132.07633827 142.89147949 133.76449585 C143.38465589 134.25544153 143.87783229 134.7463872 144.38595343 135.25221002 C149.9550401 140.8535225 149.9550401 140.8535225 150.125 145.1875 C150.08375 146.115625 150.0425 147.04375 150 148 C144.20835714 147.618434 141.59041995 146.35660429 137.45703125 142.32421875 C136.95194534 141.83861984 136.44685944 141.35302094 135.9264679 140.85270691 C134.26888194 139.25016301 132.63413318 137.62642753 131 136 C129.84229892 134.86602011 128.6839214 133.73273044 127.52490234 132.60009766 C124.50287161 129.63457092 121.50503164 126.64584001 118.51635742 123.64672852 C116.67545292 121.80041754 114.82919728 119.95957727 112.98242188 118.11914062 C111.78353312 116.91959162 110.58495431 115.71973274 109.38671875 114.51953125 C108.84802658 113.98286331 108.30933441 113.44619537 107.75431824 112.89326477 C105.02399183 110.14642945 102.41530979 107.34434733 99.90203857 104.39707947 C95.61948501 99.48682276 91.02425794 94.92176688 86.39282227 90.34277344 C85.44573774 89.40253571 84.49891188 88.46203737 83.55232239 87.52130127 C81.52987968 85.5120853 79.50600756 83.5043246 77.48108101 81.497612 C74.27975268 78.32431776 71.08400762 75.14544032 67.88938904 71.96539307 C66.79230171 70.8734478 65.69520712 69.78150984 64.59810543 68.68957901 C64.04921685 68.14327599 63.50032827 67.59697297 62.9348067 67.03411531 C55.50680652 59.64209356 48.07396147 52.25499214 40.63110352 44.87792969 C35.59415441 39.88541818 30.56431102 34.88586579 25.54247135 29.87815499 C22.88861434 27.23237543 20.23115253 24.59045038 17.56485176 21.95720673 C14.59962201 19.02868903 11.64997543 16.08494985 8.70141602 13.13964844 C7.81474243 12.268927 6.92806885 11.39820557 6.01452637 10.50109863 C5.2168837 9.69940247 4.41924103 8.8977063 3.59742737 8.07171631 C2.89858209 7.37785702 2.1997368 6.68399773 1.47971439 5.9691124 C0 4 0 4 0 0 Z " fill="#F8A42A" transform="translate(81,292)"/>
<path d="M0 0 C3.80255912 1.90127956 5.21906384 7.40332557 6.99023438 11.18554688 C7.50360352 12.25192383 7.50360352 12.25192383 8.02734375 13.33984375 C8.33406006 13.99331787 8.64077637 14.64679199 8.95678711 15.32006836 C10.48244459 17.77690176 12.30549654 18.83261645 15.0847168 19.50244141 C15.86500244 19.61765137 16.64528809 19.73286133 17.44921875 19.8515625 C18.29677734 19.98046875 19.14433594 20.109375 20.01757812 20.2421875 C21.33918945 20.43167969 21.33918945 20.43167969 22.6875 20.625 C23.58017578 20.7590625 24.47285156 20.893125 25.39257812 21.03125 C27.59414427 21.36089627 29.79650647 21.68353914 32 22 C28.8483218 25.73670072 25.71076965 29.41648163 22.1875 32.8125 C19.7530483 35.15387871 19.7530483 35.15387871 18 38 C18.06387537 40.0236878 18.20041586 42.04534539 18.375 44.0625 C18.52388672 45.80273438 18.52388672 45.80273438 18.67578125 47.578125 C19.06877196 51.72583419 19.50914009 55.86275216 20 60 C18.9378125 59.4225 17.875625 58.845 16.78125 58.25 C15.35461832 57.49914122 13.92750915 56.7491892 12.5 56 C11.80390625 55.6184375 11.1078125 55.236875 10.390625 54.84375 C5.28945959 52.19870127 1.74944953 51.30868342 -4 52 C-7.59067941 53.45676979 -7.59067941 53.45676979 -10.875 55.5 C-16.86111111 59 -16.86111111 59 -19 59 C-18.855625 58.07058594 -18.71125 57.14117187 -18.5625 56.18359375 C-18.2840625 54.32927734 -18.2840625 54.32927734 -18 52.4375 C-17.814375 51.21933594 -17.62875 50.00117187 -17.4375 48.74609375 C-16.40036411 42.05084775 -16.40036411 42.05084775 -18.28515625 35.8125 C-18.87167969 35.214375 -19.45820313 34.61625 -20.0625 34 C-20.69414062 33.33871094 -21.32578125 32.67742188 -21.9765625 31.99609375 C-22.64429688 31.33738281 -23.31203125 30.67867187 -24 30 C-24.66773438 29.33097656 -25.33546875 28.66195312 -26.0234375 27.97265625 C-27.24413374 26.75445123 -28.4737666 25.54509113 -29.71484375 24.34765625 C-31 23 -31 23 -31 22 C-30.45061768 21.93530518 -29.90123535 21.87061035 -29.33520508 21.80395508 C-26.82435526 21.49555866 -24.31900119 21.15437872 -21.8125 20.8125 C-20.51602539 20.66071289 -20.51602539 20.66071289 -19.19335938 20.50585938 C-15.04258403 19.91743528 -12.53013014 19.3975976 -9.125 16.84375 C-6.69793542 13.59576652 -4.89667375 10.35109317 -3.1875 6.6875 C-2.87619141 6.04232422 -2.56488281 5.39714844 -2.24414062 4.73242188 C-1.48676288 3.15940656 -0.74203942 1.58030874 0 0 Z " fill="#FBA62B" transform="translate(256,25)"/>
<path d="M0 0 C1.21236328 0.02707031 1.21236328 0.02707031 2.44921875 0.0546875 C3.06410156 0.07789063 3.67898438 0.10109375 4.3125 0.125 C4.3125 3.125 4.3125 3.125 2.58600521 4.93137836 C1.77620488 5.61501548 0.96640455 6.29865259 0.13206482 7.00300598 C-3.99400995 10.59759804 -7.96407854 14.2805832 -11.84312439 18.1401825 C-12.38988614 18.68358328 -12.93664789 19.22698406 -13.49997818 19.78685153 C-15.26876058 21.54827837 -17.03467794 23.31254725 -18.80053711 25.0769043 C-20.08758101 26.35930894 -21.374818 27.64151982 -22.66223145 28.92355347 C-26.1291071 32.37742361 -29.59274424 35.83452262 -33.05535579 39.29266715 C-35.22155981 41.45592568 -37.38834336 43.6186021 -39.55529976 45.78110695 C-46.34441501 52.55658857 -53.13155598 59.33403852 -59.91579622 66.11440152 C-67.73249168 73.92660368 -75.55570904 81.73219703 -83.38458627 89.53219098 C-89.45122737 95.57722784 -95.51210335 101.6280053 -101.56862074 107.68318492 C-105.18058354 111.2941003 -108.79492996 114.9025499 -112.41529655 118.50504112 C-115.81431449 121.88759672 -119.2061205 125.27722003 -122.59252167 128.67240524 C-123.83515028 129.91580477 -125.08034341 131.15664752 -126.32828712 132.39471245 C-128.03281379 134.08653432 -129.72780487 135.78737959 -131.42076111 137.49076843 C-132.16199287 138.21991558 -132.16199287 138.21991558 -132.918199 138.96379298 C-137.65848213 143.77256022 -139.89271273 148.44878691 -140.6875 155.125 C-143.84865776 153.75516497 -144.6802092 153.1359362 -146.6875 150.125 C-147.3238304 146.82765157 -147.54633684 145.27519266 -146.6875 142.125 C-145.10539818 139.96248627 -145.10539818 139.96248627 -142.95126343 137.66247559 C-141.71843691 136.34336433 -141.71843691 136.34336433 -140.4607048 134.99760437 C-135.2877776 129.63926471 -130.05091104 124.34952962 -124.77978516 119.08789062 C-123.50234714 117.80909466 -122.22512132 116.5300867 -120.9480896 115.25088501 C-117.50870496 111.80697614 -114.06620687 108.36619586 -110.62296724 104.92614174 C-107.01141276 101.31713305 -103.40231456 97.70566932 -99.79281616 94.09460449 C-93.74078905 88.04076378 -87.68666887 81.98902225 -81.63134766 75.93847656 C-74.62939679 68.94198399 -67.6310788 61.94187308 -60.63460314 54.93990564 C-54.6175803 48.91834911 -48.59861642 42.89873798 -42.57801664 36.88075781 C-38.98599849 33.2902988 -35.39465986 29.69916711 -31.80507278 26.10627747 C-28.43709234 22.73541402 -25.06668587 19.36699545 -21.69437027 16.00046921 C-20.45630619 14.76372968 -19.21909655 13.52613413 -17.98279572 12.28763199 C-16.29849591 10.6006092 -14.61116173 8.91668162 -12.92300415 7.23352051 C-12.43205847 6.74034411 -11.9411128 6.24716771 -11.43528998 5.73904657 C-7.70468947 2.02990918 -5.36859112 -0.15561134 0 0 Z " fill="#E88F1A" transform="translate(427.6875,291.875)"/>
<path d="M0 0 C2.98293241 1.34061711 5.06238209 2.81560272 7.36386108 5.13008118 C8.00857864 5.77349457 8.6532962 6.41690796 9.31755066 7.07981873 C10.01375015 7.78477982 10.70994965 8.48974091 11.42724609 9.21606445 C12.16921738 9.95934998 12.91118866 10.7026355 13.67564392 11.46844482 C16.12953354 13.92882978 18.57637339 16.39610927 21.0234375 18.86328125 C22.72919629 20.57531147 24.43547194 22.28682687 26.14224243 23.99784851 C30.63881486 28.5077338 35.12979447 33.0231443 39.61920166 37.54016113 C46.7967495 44.7607892 53.98094264 51.97478938 61.1684761 59.1854763 C63.67571394 61.70291439 66.17949535 64.22375264 68.68295288 66.74494934 C70.22650597 68.29533394 71.77017073 69.84560736 73.31396484 71.39575195 C74.35219139 72.44408455 74.35219139 72.44408455 75.41139221 73.51359558 C82.41373584 81.04992056 82.41373584 81.04992056 91.4375 85.3125 C96.86042439 86.96695151 100.32284411 89.98977408 103 95 C103.71723669 99.12863136 103.90390228 103.19219544 102 107 C95.57833497 107.59216173 91.06073021 107.31159889 85.74609375 103.47265625 C81.33069749 99.74870907 79.16378137 96.7004003 77.34199524 91.3132019 C75.07386249 85.54226151 71.70408992 81.92285901 67.27807617 77.67626953 C66.5053537 76.91070236 65.73263123 76.14513519 64.93649292 75.35636902 C63.26969578 73.70894567 61.59597285 72.06850541 59.91603661 70.43448257 C57.25975071 67.85049863 54.62253918 65.24832614 51.98933411 62.64083862 C46.88007042 57.58787259 41.7512392 52.55514777 36.61799622 47.52655792 C29.6205813 40.67069755 22.63526944 33.80280943 15.67174721 26.91250229 C13.06776106 24.34475974 10.44886547 21.79291094 7.8289032 19.2414856 C6.2435564 17.67748346 4.6588688 16.11281276 3.07495117 14.54736328 C2.33893173 13.83874649 1.60291229 13.1301297 0.84458923 12.40003967 C-0.14175507 11.41639183 -0.14175507 11.41639183 -1.14802551 10.41287231 C-1.7263252 9.84697451 -2.30462488 9.2810767 -2.9004488 8.69803047 C-4 7 -4 7 -3.77590466 4.89607048 C-2.88202306 2.71170094 -1.76846212 1.53779315 0 0 Z " fill="#BF6A3C" transform="translate(383,381)"/>
<path d="M0 0 C3.16115776 1.36983503 3.9927092 1.9890638 6 5 C-4.64797744 15.78837432 -15.31330008 26.55938218 -25.999259 37.31013203 C-30.96097384 42.30273521 -35.91694765 47.30079312 -40.85961914 52.31225586 C-45.63100942 57.15002143 -50.41808308 61.97180617 -55.21499825 66.7842617 C-57.04106178 68.6213978 -58.86184255 70.46380069 -60.67716789 72.31154823 C-63.22396758 74.90200335 -65.78903686 77.47296627 -68.35913086 80.0402832 C-69.10288467 80.80560867 -69.84663849 81.57093414 -70.6129303 82.35945129 C-74.82441821 86.52206625 -78.2868075 88.96840454 -84.06037235 90.45268536 C-88.47379542 91.69804349 -90.65696747 94.52356593 -93.25 98.125 C-95.61337699 102.49915338 -95.803207 107.10969401 -96 112 C-99.88343365 108.2418384 -101.19816954 106.29285678 -101.5 100.875 C-101.42729546 95.32764394 -100.0684885 92.50210152 -96.171875 88.61328125 C-93.91596164 86.93757582 -92.03094179 86.13097415 -89.375 85.25 C-84.78139393 83.66141837 -81.67329851 81.21988533 -78.21411133 77.90332031 C-77.37831779 77.11641752 -77.37831779 77.11641752 -76.52563953 76.31361771 C-68.93978202 69.12228708 -61.57665839 61.70046926 -54.19921875 54.296875 C-52.62618186 52.72196799 -51.0529203 51.14728535 -49.47944641 49.57281494 C-45.38221795 45.47180799 -41.288004 41.36780485 -37.19445801 37.26312256 C-32.99933026 33.05767909 -28.80129288 28.85514224 -24.60351562 24.65234375 C-16.39952913 16.4377025 -8.19873137 8.21988598 0 0 Z " fill="#915F3D" transform="translate(127,381)"/>
<path d="M0 0 C3.32759923 1.55194754 5.48580485 3.30621949 8 6 C6.41600411 9.89395116 3.75803057 12.51152235 0.81591797 15.41113281 C0.28893311 15.93840973 -0.23805176 16.46568665 -0.78100586 17.00894165 C-2.51857476 18.74512072 -4.26311314 20.474114 -6.0078125 22.203125 C-7.21608322 23.40766437 -8.42391222 24.61264697 -9.63131714 25.8180542 C-12.80637077 28.98548106 -15.98738522 32.14685513 -19.16967773 35.30700684 C-22.41752076 38.53437089 -25.65969133 41.76742228 -28.90234375 45 C-35.26268982 51.33891303 -41.62934753 57.67144624 -48 64 C-49.17539996 63.07347299 -50.34010577 62.13336613 -51.5 61.1875 C-52.1496875 60.66542969 -52.799375 60.14335937 -53.46875 59.60546875 C-55 58 -55 58 -55 55 C-53.37136418 53.08997105 -51.7392732 51.36119653 -49.95117188 49.6105957 C-49.41472549 49.07371124 -48.87827911 48.53682678 -48.32557678 47.9836731 C-46.54698508 46.20717488 -44.75799559 44.44154341 -42.96875 42.67578125 C-41.73498459 41.44760979 -40.50187896 40.21877521 -39.26940918 38.98930359 C-36.02087554 35.7522345 -32.76343403 32.52427425 -29.50408936 29.2980957 C-26.18091899 26.00559141 -22.86620549 22.70459784 -19.55078125 19.40429688 C-13.04212776 12.92783594 -6.52403721 6.46096134 0 0 Z " fill="#48B4CD" transform="translate(209,278)"/>
<path d="M0 0 C2.61047801 1.305239 2.68066423 2.35826574 3.625 5.0625 C4.01558594 6.16271484 4.01558594 6.16271484 4.4140625 7.28515625 C4.60742188 7.85105469 4.80078125 8.41695312 5 9 C4.34 9 3.68 9 3 9 C2.8865625 9.72960938 2.773125 10.45921875 2.65625 11.2109375 C1.55502154 15.89115844 -0.76898851 19.4684293 -4 23 C-6.88780209 24.74895056 -9.70512118 25.36543075 -13 26 C-14.08667969 26.27070312 -15.17335937 26.54140625 -16.29296875 26.8203125 C-22.97440685 28.25474554 -22.97440685 28.25474554 -26 28 C-28.08939767 26.17347518 -29.39327388 24.30594952 -31 22 C-30.45061768 21.93530518 -29.90123535 21.87061035 -29.33520508 21.80395508 C-26.82435526 21.49555866 -24.31900119 21.15437872 -21.8125 20.8125 C-20.51602539 20.66071289 -20.51602539 20.66071289 -19.19335938 20.50585938 C-15.04258403 19.91743528 -12.53013014 19.3975976 -9.125 16.84375 C-6.69793542 13.59576652 -4.89667375 10.35109317 -3.1875 6.6875 C-2.87619141 6.04232422 -2.56488281 5.39714844 -2.24414062 4.73242188 C-1.48676288 3.15940656 -0.74203942 1.58030874 0 0 Z " fill="#E78F1A" transform="translate(256,25)"/>
</svg>
